/* XPM */
static char *result[] = {
/* columns rows colors chars-per-pixel */
"128 128 69 1 ",
"  c #272727",
". c #2B2726",
"X c #2B2B2B",
"o c #332725",
"O c #3B2724",
"+ c #323232",
"@ c #3D3D3D",
"# c #56261F",
"$ c #5D261E",
"% c #64251D",
"& c #6C251B",
"* c #74251A",
"= c #7A2519",
"- c #432622",
"; c #4B2621",
": c #522620",
"> c #414142",
", c #474748",
"< c #5B5B5B",
"1 c #5F5F60",
"2 c #626363",
"3 c #6B6B6C",
"4 c #727273",
"5 c #777778",
"6 c #7D7D7E",
"7 c #852517",
"8 c #8B2416",
"9 c #812518",
"0 c #942415",
"q c #9B2413",
"w c #B5230F",
"e c #BC230E",
"r c #A42412",
"t c #AC2410",
"y c #B12310",
"u c #C3230D",
"i c #CB230B",
"p c #D3230A",
"a c #DC2208",
"s c #E42207",
"d c #E22208",
"f c #858687",
"g c #878788",
"h c #878889",
"j c #8A8B8C",
"k c #8F9091",
"l c #929394",
"z c #979899",
"x c #9A9B9C",
"c c #9E9EA0",
"v c #9FA0A1",
"b c #A3A4A5",
"n c #A6A7A9",
"m c #AAABAC",
"M c #AEAFB0",
"N c #AFB0B2",
"B c #B2B3B4",
"V c #B6B7B8",
"C c #BABBBD",
"Z c #C2C2C4",
"A c #C6C6C8",
"S c #CACBCC",
"D c #CECFD1",
"F c #D2D3D5",
"G c #D6D7D9",
"H c #D7D8DA",
"J c #DBDCDE",
"K c #DEDFE1",
"L c None",
/* pixels */
"LLLLLLLLLLLLLLLLLLLLLLLLLLLLLLLLLLLLLLLLLLLLLLLLLLLLLLLLLLLLLLLLLLLLLLLLLLLLLLLLLLLLLLLLLLLLLLLLLLLLLLLLLLLLLLLLLLLLLLLLLLLLLLLL",
"LLLLLLLLLLLLLLLLLLLLLLLLLLLLLLLLLLLLLLLLLLLLLLLLLLLLLLLLLLLLLLLLLLLLLLLLLLLLLLLLLLLLLLLLLLLLLLLLLLLLLLLLLLLLLLLLLLLLLLLLLLLLLLLL",
"LLLLLLLLLLLLLLLLLLLLLLLLLLLLLLLLLLLLLLLLLLLLLLLLLLLLLLLLLLLLLLLLLLLLLLLLLLLLLLLLLLLLLLLLLLLLLLLLLLLLLLLLLLLLLLLLLLLLLLLLLLLLLLLL",
"LLLLLLLLLLLLLLLLLLLLLLLLLLLLLLLLLLLLLLLLLLLLLLLLLLLLLLLLddsssdssssdsssddLLLLLLLLLLLLLLLLLLLLLLLLLLLLLLLLLLLLLLLLLLLLLLLLLLLLLLLL",
"LLLLLLLLLLLLLLLLLLLLLLLLLLLLLLLLLLLLLLLLLLLLLLLLLLdsssssssssssssssssssssssssddLLLLLLLLLLLLLLLLLLLLLLLLLLLLLLLLLLLLLLLLLLLLLLLLLL",
"LLLLLLLLLLLLLLLLLLLLLLLLLLLLLLLLLLLLLLLLLLLLLLdssssssssssssssssssssssssssssssssssdLLLLLLLLLLLLLLLLLLLLLLLLLLLLLLLLLLLLLLLLLLLLLL",
"LLLLLLLLLLLLLLLLLLLLLLLLLLLLLLLLLLLLLLLLLLLddssssssssssssssssssssssssssssssssssssssssLLLLLLLLLLLLLLLLLLLLLLLLLLLLLLLLLLLLLLLLLLL",
"LLLLLLLLLLLLLLLLLLLLLLLLLLLLLLLLLLLLLLLLLsssssssssssssssssssssssssssssssssssssssssssssssLLLLLLLLLLLLLLLLLLLLLLLLLLLLLLLLLLLLLLLL",
"LLLLLLLLLLLLLLLLLLLLLLLLLLLLLLLLLLLLLLssssssssssssssssssssssssssssssssssssssssssssssssssssLLLLLLLLLLLLLLLLLLLLLLLLLLLLLLLLLLLLLL",
"LLLLLLLLLLLLLLLLLLLLLLLLLLLLLLLLLLLLssssssssssssssssssssssssssssssssssssssssssssssssssssssssLLLLLLLLLLLLLLLLLLLLLLLLLLLLLLLLLLLL",
"LLLLLLLLLLLLLLLLLLLLLLLLLLLLLLLLLLssssssssssssssssssssssssssssssssssssssssssssssssssssssssssssLLLLLLLLLLLLLLLLLLLLLLLLLLLLLLLLLL",
"LLLLLLLLLLLLLLLLLLLLLLLLLLLLLLLLLsssssssssssssssssssssssssssssssssssssssssssssssssssssssssssssssLLLLLLLLLLLLLLLLLLLLLLLLLLLLLLLL",
"LLLLLLLLLLLLLLLLLLLLLLLLLLLLLLLdssssssssssssssssssssssssssssssdsssssssssssssssssssssssssssssssssssLLLLLLLLLLLLLLLLLLLLLLLLLLLLLL",
"LLLLLLLLLLLLLLLLLLLLLLLLLLLLLdssssssssssssssssssssssssssssssdappppassdsssssssssssssssssssssssssssssdLLLLLLLLLLLLLLLLLLLLLLLLLLLL",
"LLLLLLLLLLLLLLLLLLLLLLLLLLLLssssssssssssssssssssssssspt8*:-o        o;$*0tissdsssssssssssssssssssssssLLLLLLLLLLLLLLLLLLLLLLLLLLL",
"LLLLLLLLLLLLLLLLLLLLLLLLLLdssssssssssssssssssssdsiq%O                      O%0usssssssssssssssssssssssLLLLLLLLLLLLLLLLLLLLLLLLLL",
"LLLLLLLLLLLLLLLLLLLLLLLLLsssssssssssssssssssdsu8;                              O*tddssssssssssssssssssssLLLLLLLLLLLLLLLLLLLLLLLL",
"LLLLLLLLLLLLLLLLLLLLLLLLsssssssssssssssssssaq#  X                                 O*udsssssssssssssssssssLLLLLLLLLLLLLLLLLLLLLLL",
"LLLLLLLLLLLLLLLLLLLLLLLssssssssssssssssssp7o                                         #rddsssssssssssssssssLLLLLLLLLLLLLLLLLLLLLL",
"LLLLLLLLLLLLLLLLLLLLLLsssssssssssssssssp=.                                             -qdsssssssssssssssssLLLLLLLLLLLLLLLLLLLLL",
"LLLLLLLLLLLLLLLLLLLLLsssssssssssssssdd8o                                                 -rsssssssssssssssssLLLLLLLLLLLLLLLLLLLL",
"LLLLLLLLLLLLLLLLLLLLssssssssssssssssw-                                                     #ussssssssssssssssLLLLLLLLLLLLLLLLLLL",
"LLLLLLLLLLLLLLLLLLLsssssssssssssssp&                                                        o9asssssssssssssssLLLLLLLLLLLLLLLLLL",
"LLLLLLLLLLLLLLLLLLssssssssssssssseO                                                           ;esssssssssssssssLLLLLLLLLLLLLLLLL",
"LLLLLLLLLLLLLLLLLsssssssssssssss7                                                              oqsssssssssssssssLLLLLLLLLLLLLLLL",
"LLLLLLLLLLLLLLLLssssssssssssssa%                                                                X*assssssssssssssLLLLLLLLLLLLLLL",
"LLLLLLLLLLLLLLLssssssssssssssi-                                                                   #pssssssssssssssLLLLLLLLLLLLLL",
"LLLLLLLLLLLLLLssssssssssssssuO                                                                     -psssssssssssssdLLLLLLLLLLLLL",
"LLLLLLLLLLLLLsssssssssssssdwo                                                                       OisssssssssssssLLLLLLLLLLLLL",
"LLLLLLLLLLLLLssssssssssssdwo                                                                         OissssssssssssdLLLLLLLLLLLL",
"LLLLLLLLLLLLssssssssssssseo                                                                           -pssssssssssssdLLLLLLLLLLL",
"LLLLLLLLLLLsssssssssssssuo                                                                             ;assssssssssssLLLLLLLLLLL",
"LLLLLLLLLLLsssssssssssspO                                                                               %ddsssssssssssLLLLLLLLLL",
"LLLLLLLLLLssssssssssssa:                                                                                 9ssssssssssssdLLLLLLLLL",
"LLLLLLLLLdsssssssssssd*                                                                                   tssssssssssssLLLLLLLLL",
"LLLLLLLLLssssssssssssr                             X                                                      OpssssssssssssLLLLLLLL",
"LLLLLLLLssssssssssssio        <nSFFFFFFFFFFFFFFFFFFFFFFFFFFFFFFFFFFFFFFFFFFFFFFFFFFFFFFFFFFFFFFSn1         %ssssssssssssLLLLLLLL",
"LLLLLLLLssssssssssss#        6KKKJKKKKKKKKKKKKKKKKKKKKKKKJKKKKKKKKKKKKKKKKKKKKKKKKKKKKKKKKKKKKKKKKj         rssssssssssssLLLLLLL",
"LLLLLLLsssssssssssdq        @JKKKKKKKKKKKKKKKKKKKKKKKKKKKKKKKKKKKKKKKKKKKKKKKKKKKKKKKKKKKKKKKKKKKKK,        OasssssssssssLLLLLLL",
"LLLLLLLssssssssssspo        4KKKKKKKKKKKKKKKKKKKKKKKKKKKKKKKKKKKKKKKKKKKKKKKKKKKKKKKKKKKKKKKKKKKKKJ6         9sssssssssssdLLLLLL",
"LLLLLLdsssssssssss*         fKKKKKKKKKKKKKKKKKKKKKKKKKKKKKKKKKKKKKKKKKKKKKKKKKKKKKKKKKKKKKKKKKKKKKKl         opsssssssssssLLLLLL",
"LLLLLLsssssssssssi.         6KKKKKKKKKKKKKKKKKKKKKKKKKKKKKKKKKKKKKKKKKKKKKKKKKKKKKKKKKKKKKKKKKKKKKKg          *sssssssssssLLLLLL",
"LLLLLLsssssssssss&          <JKKKKKKKKKKKKKKKKKKKKKKKKKKKKKKKKKKKKKKKKKKKKKKKKKKKKKKKKKKKKKKKKKKKKK2          .psssssssssssLLLLL",
"LLLLLsssssssssssi           XCKKKKKKKKKKKKKKKKKKKKKKKKKKKKKKKKKKKKKKKKKKKKKKKKKKKKKKKKKKKKKKKKKKKKZX           =sssssssssssLLLLL",
"LLLLLsssssssssss*            @nJKKKKKKKKKKKKKKKKKKKKKKKKKKKKKKKKKKKKKKKKJJKKKKKKKKKKKKKKJKKKKKKKKB@X           odssssssssssdLLLL",
"LLLLLssssssssssao              @13333333333333333333333333AKKKKKKKKKKK43333333333333333333333331@               rdsssssssssdLLLL",
"LLLLsssssssssssq                                          BKKKKKKKKKKK+     X               X                   #dssssssssssLLLL",
"LLLLsssssssssss$                                          BKKKKKKKKKKK+                                          pssssssssssLLLL",
"LLLLssssssssssp                                           BKKKKKKKKKKK+                                          0dssssssssssLLL",
"LLLdssssssssssq                                           BKKKKKKKKKKK+X                                         $sssssssssssLLL",
"LLLdssssssssss%                                           BKKKKKKKKKKK+                                           assssssssssLLL",
"LLLssssssssssso                                           BKKKKKKKKKKK+                                           wssssssssssLLL",
"LLLsssssssssdu                                            BKKKKKKKKKKK+                                           9ssssssssssdLL",
"LLLssssssssss0                                            BKKKKKKKKKKK+                                           $sssssssssssLL",
"LLsssssssssss*                                            BKKKKKKKKKKK+                                           osssssssssssLL",
"LLsssssssssss:                                            BKKKKKKKKKKK+                                            pssssssssssLL",
"LLsssssssssssO                                            BJKKKKKKKKKK+                                            wssssssssssLL",
"LLssssssssssa                                             BKKKKKKKKKKJ+                                            qssssssssssLL",
"LLssssssssssu                                             NKKKKKKKKKKK+                                            7ssssssssssLL",
"LLssssssssssw                                             MKKKKKKKKKKKX                                            =ssssssssssLL",
"LLsssssssssst                                             NKKKKKKKKKKKX                                            %sssssssssssL",
"LLssssssssssr                                             mKKKKKKKKKKKXX                                           $ssssssssssdL",
"LLssssssssssq                                             mKKKKKKKKKKKX                                            #ssssssssssdL",
"LLssssssssssq                                             mKKKKKKKKKKKX                                            :sssssssssssL",
"LLssssssssssq                                             mKKKKKKKKKKKX                                            #sssssssssssL",
"LLssssssssssr                                             mKKKKKKKKKKKX                                            #sssssssssssL",
"LLsssssssssst                                             nKKKKKKKKKKJX                                            $sssssssssssL",
"LLssssssssddw                                             nKKKKKKKKKKJ                                             %ssssssssssdL",
"LLssssssssssu                                             nJKKKKKKKKKJ                                             *ssssssssssLL",
"LLssssssssssp.                                            bKKKKKKKKKKJ                                             8ssssssssssLL",
"LLssssssssssd.                                            bJKKKKKKKKKJ                                             qssssssssssLL",
"LLsssssssssss-                                            bKKKKKKKKKKJ                                             wssssssssssLL",
"LLdssssssssss%                                            cKKKKKKKKKKH                                             pssssssssssLL",
"LLLsssssssssd8                                            xKKKKKKKKKKG                                            OdssssssssssLL",
"LLLsssssssssdt                                            zKKKKKKKKKKF                                            %dssssssssssLL",
"LLLssssssssssp                                            xKKKKKKKKKKF                                            8sssssssssssLL",
"LLLdssssssssss-                                           zKKKKKKKKKKF                                            wdsssssssssLLL",
"LLLsssssssssss&                                           zKKKKKKKKKJF                                           odssssssssssLLL",
"LLLssssssssssst                                           lKKKKKKKKKKF                                           %dssssssssssLLL",
"LLLLssssssssssa.                                          lKKKKKKKKKKS                                           qssssssssssdLLL",
"LLLLdssssssssss%                                          lJKKKKKKKKKSX                                          pssssssssssLLLL",
"LLLLsssssssssssr                                          lKKKKKKKKKKS                                          %sssssssssssLLLL",
"LLLLLssssssssssao                                         jKKKKKKKKKJS                                          tsssssssssssLLLL",
"LLLLLsssssssssss=                                        XjKKKKKKKKKKS                                         OdssssssssssLLLLL",
"LLLLLsssssssssssi                                         jKKKKKKKKKKA                                         8sssssssssssLLLLL",
"LLLLLLsssssssssss%                                        jKKKKKKKKKKS                                        oasssssssssssLLLLL",
"LLLLLLsssssssssssu                                        jKKKKKKKKKKZ                                        9sssssssssssLLLLLL",
"LLLLLLdsssssssssss%                                       gKKKKKKKKKKA                                       opsssssssssssLLLLLL",
"LLLLLLLsssssssssssi.                                      hKKKKKKKKKKA                                       8sssssssssssdLLLLLL",
"LLLLLLLssssssssssss9                                      gKKKKKKKKKKZ                                      -dsssssssssssLLLLLLL",
"LLLLLLLLsssssssssssa-                                     gKKKKKKKKKKZ                                      tsssssssssssdLLLLLLL",
"LLLLLLLLssssssssssssw                                     gKKKKKKKKKJZ                                     &ssssssssssssLLLLLLLL",
"LLLLLLLLLsssssssssssd=                                    gKKKKKKKKKKZ                                    OpsssssssssssdLLLLLLLL",
"LLLLLLLLLssssssssssssa;                                   gKKKKKKKKKJZ                                    yssssssssssssLLLLLLLLL",
"LLLLLLLLLLssssssssssssio                                  gJKKKKKKKKKZ                                   7ssssssssssssLLLLLLLLLL",
"LLLLLLLLLLssssssssssssdy                                  gKKKKKKKKKKZ                                  $sssssssssssssLLLLLLLLLL",
"LLLLLLLLLLLsssssssssssssq                                 4JKKKKKKKKKN                                 -assssssssssssLLLLLLLLLLL",
"LLLLLLLLLLLLsssssssssssss9                                +ZKKKKKKKKJ<                                OissssssssssssdLLLLLLLLLLL",
"LLLLLLLLLLLLdsssssssssssss=                                +5mAFFSVj>                                oudssssssssssssLLLLLLLLLLLL",
"LLLLLLLLLLLLLssssssssssssss=                                                                        oesssssssssssssLLLLLLLLLLLLL",
"LLLLLLLLLLLLLLssssssssssssss8                                                                      oesssssssssssssdLLLLLLLLLLLLL",
"LLLLLLLLLLLLLLLsssssssssssssdq                                                                    OissssssssssssssLLLLLLLLLLLLLL",
"LLLLLLLLLLLLLLLssssssssssssssswo                                                                 :pssssssssssssssLLLLLLLLLLLLLLL",
"LLLLLLLLLLLLLLLLdssssssssssssssi;                                                               &assssssssssssssLLLLLLLLLLLLLLLL",
"LLLLLLLLLLLLLLLLLsssssssssssssssa=                                                            o0sssssssssssssssLLLLLLLLLLLLLLLLL",
"LLLLLLLLLLLLLLLLLLssssssssssssssssy-                                                         ;usssssssssssssssLLLLLLLLLLLLLLLLLL",
"LLLLLLLLLLLLLLLLLLLssssssssssssssssa*                                                       8ddssssssssssssssLLLLLLLLLLLLLLLLLLL",
"LLLLLLLLLLLLLLLLLLLLsssssssssssssssssu:                                                   $idsssssssssssssssLLLLLLLLLLLLLLLLLLLL",
"LLLLLLLLLLLLLLLLLLLLLsssssssssssssssssdt-                                               :ysssssssssssssssssLLLLLLLLLLLLLLLLLLLLL",
"LLLLLLLLLLLLLLLLLLLLLLsssssssssssssssssssr;                                           ;tssssssssssssssssssLLLLLLLLLLLLLLLLLLLLLL",
"LLLLLLLLLLLLLLLLLLLLLLLLssssssssssssssssssdt$                                       %wdssssssssssssssssssLLLLLLLLLLLLLLLLLLLLLLL",
"LLLLLLLLLLLLLLLLLLLLLLLLLssssssssssssssssssssi8;                                 #0pssssssssssssssssssssLLLLLLLLLLLLLLLLLLLLLLLL",
"LLLLLLLLLLLLLLLLLLLLLLLLLLssssssssssssssssssssssu8#X                      X  o$0issssssssssssssssssssssLLLLLLLLLLLLLLLLLLLLLLLLL",
"LLLLLLLLLLLLLLLLLLLLLLLLLLLsssssssssssssssssssssdddat9%O                o-%0eaddsssssssssssssssssssssLLLLLLLLLLLLLLLLLLLLLLLLLLL",
"LLLLLLLLLLLLLLLLLLLLLLLLLLLLLsssssssssssssssssssdssssssspet07=**&*=90ryiasssssssssssssssssssssssssssLLLLLLLLLLLLLLLLLLLLLLLLLLLL",
"LLLLLLLLLLLLLLLLLLLLLLLLLLLLLLdsssssssssssssssssssssssssssssssssssssssssssssssssssssssssssssssssssLLLLLLLLLLLLLLLLLLLLLLLLLLLLLL",
"LLLLLLLLLLLLLLLLLLLLLLLLLLLLLLLLsssssssssssssssssssssssssssssssssssssssssssssssssssssssssssssssssLLLLLLLLLLLLLLLLLLLLLLLLLLLLLLL",
"LLLLLLLLLLLLLLLLLLLLLLLLLLLLLLLLLLsssssssssssssssssssssssssssssssssssssssssssssssssssssssssssssLLLLLLLLLLLLLLLLLLLLLLLLLLLLLLLLL",
"LLLLLLLLLLLLLLLLLLLLLLLLLLLLLLLLLLLLsssssssssssssssssssssssssssssssssssssssssssssssssssssssssLLLLLLLLLLLLLLLLLLLLLLLLLLLLLLLLLLL",
"LLLLLLLLLLLLLLLLLLLLLLLLLLLLLLLLLLLLLLdssssssssssssssssssssssssssssssssssssssssssssssssssssLLLLLLLLLLLLLLLLLLLLLLLLLLLLLLLLLLLLL",
"LLLLLLLLLLLLLLLLLLLLLLLLLLLLLLLLLLLLLLLLssssssssssssssssssssssssssssssssssssssssssssssssdLLLLLLLLLLLLLLLLLLLLLLLLLLLLLLLLLLLLLLL",
"LLLLLLLLLLLLLLLLLLLLLLLLLLLLLLLLLLLLLLLLLLdsssssssssssssssssssssssssssssssssssssssssssdLLLLLLLLLLLLLLLLLLLLLLLLLLLLLLLLLLLLLLLLL",
"LLLLLLLLLLLLLLLLLLLLLLLLLLLLLLLLLLLLLLLLLLLLLdsssssssssssssssssssssssssssssssssssssdLLLLLLLLLLLLLLLLLLLLLLLLLLLLLLLLLLLLLLLLLLLL",
"LLLLLLLLLLLLLLLLLLLLLLLLLLLLLLLLLLLLLLLLLLLLLLLLLsdsssssssssssssssssssssssssssssLLLLLLLLLLLLLLLLLLLLLLLLLLLLLLLLLLLLLLLLLLLLLLLL",
"LLLLLLLLLLLLLLLLLLLLLLLLLLLLLLLLLLLLLLLLLLLLLLLLLLLLLssdssssssssssssssssdsdLLLLLLLLLLLLLLLLLLLLLLLLLLLLLLLLLLLLLLLLLLLLLLLLLLLLL",
"LLLLLLLLLLLLLLLLLLLLLLLLLLLLLLLLLLLLLLLLLLLLLLLLLLLLLLLLLLLLLLLLLLLLLLLLLLLLLLLLLLLLLLLLLLLLLLLLLLLLLLLLLLLLLLLLLLLLLLLLLLLLLLLL",
"LLLLLLLLLLLLLLLLLLLLLLLLLLLLLLLLLLLLLLLLLLLLLLLLLLLLLLLLLLLLLLLLLLLLLLLLLLLLLLLLLLLLLLLLLLLLLLLLLLLLLLLLLLLLLLLLLLLLLLLLLLLLLLLL",
"LLLLLLLLLLLLLLLLLLLLLLLLLLLLLLLLLLLLLLLLLLLLLLLLLLLLLLLLLLLLLLLLLLLLLLLLLLLLLLLLLLLLLLLLLLLLLLLLLLLLLLLLLLLLLLLLLLLLLLLLLLLLLLLL"
};
