/* XPM */
static char *result[] = {
/* columns rows colors chars-per-pixel */
"64 64 188 2 ",
"   c #272727",
".  c #282727",
"X  c #292727",
"o  c #2B2726",
"O  c #2A2727",
"+  c #2C2726",
"@  c #2D2726",
"#  c #2E2726",
"$  c #2F2726",
"%  c #282828",
"&  c gray16",
"*  c #2A2A2A",
"=  c gray17",
"-  c #2B2B2C",
";  c #2C2C2C",
":  c #2D2D2D",
">  c gray18",
",  c #302725",
"<  c #312725",
"1  c #322725",
"2  c #332725",
"3  c #302726",
"4  c #362724",
"5  c #372724",
"6  c #3D2623",
"7  c #3E2623",
"8  c #3F2623",
"9  c #382724",
"0  c #392724",
"q  c #3B2624",
"w  c #3A2724",
"e  c gray24",
"r  c #58261F",
"t  c #5B261E",
"y  c #5C261E",
"u  c #5E261E",
"i  c #61251D",
"p  c #62251D",
"a  c #63251D",
"s  c #60261D",
"d  c #61261D",
"f  c #66251C",
"g  c #6D251B",
"h  c #6F251B",
"j  c #68251C",
"k  c #69251C",
"l  c #6B251C",
"z  c #70251B",
"x  c #73251A",
"c  c #75251A",
"v  c #792519",
"b  c #7A2519",
"n  c #7B2519",
"m  c #7C2519",
"M  c #402623",
"N  c #412623",
"B  c #432622",
"V  c #442622",
"C  c #452622",
"Z  c #472622",
"A  c #4F2620",
"S  c #502620",
"D  c #512620",
"F  c #522620",
"G  c #532620",
"H  c gray25",
"J  c #5C5C5D",
"K  c #646465",
"L  c #797A7B",
"P  c #7A7B7C",
"I  c #7C7C7D",
"U  c #7D7D7E",
"Y  c #842517",
"T  c #852517",
"R  c #872417",
"E  c #862517",
"W  c #892416",
"Q  c #8B2416",
"!  c #8F2415",
"~  c #8D2416",
"^  c #8E2416",
"/  c #802518",
"(  c #822518",
")  c #912415",
"_  c #922415",
"`  c #972414",
"'  c #9B2413",
"]  c #9C2413",
"[  c #982414",
"{  c #B3230F",
"}  c #B4230F",
"|  c #B9230E",
" . c #BE230E",
".. c #A12412",
"X. c #A32412",
"o. c #A72411",
"O. c #A42412",
"+. c #A62412",
"@. c #AC2310",
"#. c #AD2310",
"$. c #AE2310",
"%. c #AF2310",
"&. c #A92411",
"*. c #AA2411",
"=. c #AB2411",
"-. c #AC2411",
";. c #B12310",
":. c #B22310",
">. c #C0230D",
",. c #C1230D",
"<. c #C5230C",
"1. c #C4230D",
"2. c #CC230B",
"3. c #C8230C",
"4. c #D1230A",
"5. c #D3220A",
"6. c #D2230A",
"7. c #D72209",
"8. c #D5220A",
"9. c #D82209",
"0. c #DB2208",
"q. c #DA2209",
"w. c #DB2209",
"e. c #DC2208",
"r. c #DD2208",
"t. c #DE2208",
"y. c #DF2208",
"u. c #E12207",
"i. c #E22207",
"p. c #E32207",
"a. c #E42207",
"s. c #E02208",
"d. c #E12208",
"f. c #868788",
"g. c #8C8D8E",
"h. c #919192",
"j. c #9A9A9C",
"k. c #A0A0A2",
"l. c #A1A2A3",
"z. c #A3A4A5",
"x. c #A4A5A6",
"c. c #A4A5A7",
"v. c #A5A5A7",
"b. c #A5A6A7",
"n. c #A6A7A8",
"m. c #AFB0B1",
"M. c #B0B1B3",
"N. c #B1B2B3",
"B. c #B2B2B4",
"V. c #B2B3B4",
"C. c #B3B3B5",
"Z. c #B3B4B6",
"A. c #B4B5B7",
"S. c #B5B6B7",
"D. c #B6B6B8",
"F. c #B7B8B9",
"G. c #B8B9BB",
"H. c #BABBBD",
"J. c #BCBDBE",
"K. c #BDBEC0",
"L. c #BFC0C2",
"P. c #C1C1C3",
"I. c #C2C3C5",
"U. c #C3C4C6",
"Y. c #C4C5C7",
"T. c #C5C6C8",
"R. c #C6C7C9",
"E. c #C7C8CA",
"W. c #C8C8CA",
"Q. c #C8C9CB",
"!. c #C9C9CB",
"~. c #CFD0D2",
"^. c #D0D1D2",
"/. c #D0D1D3",
"(. c #D1D2D4",
"). c #D2D3D5",
"_. c #D3D4D6",
"`. c #D5D5D7",
"'. c #D5D6D8",
"]. c #D6D7D9",
"[. c #D7D8DA",
"{. c #D8D9DB",
"}. c #D9DADC",
"|. c #DADBDD",
" X c #DCDDDF",
".X c #DDDEE0",
"XX c #DEDFE1",
"oX c None",
/* pixels */
"oXoXoXoXoXoXoXoXoXoXoXoXoXoXoXoXoXoXoXoXoXoXoXoXoXoXoXoXoXoXoXoXoXoXoXoXoXoXoXoXoXoXoXoXoXoXoXoXoXoXoXoXoXoXoXoXoXoXoXoXoXoXoXoX",
"oXoXoXoXoXoXoXoXoXoXoXoXoXoXoXoXoXoXoXoXoXoXoXoXoXoXoXoXoXoXoXoXoXoXoXoXoXoXoXoXoXoXoXoXoXoXoXoXoXoXoXoXoXoXoXoXoXoXoXoXoXoXoXoX",
"oXoXoXoXoXoXoXoXoXoXoXoXoXoXoXoXoXoXoXoXoXoXoXoXp.p.a.a.a.a.a.a.a.a.a.a.a.a.p.p.oXoXoXoXoXoXoXoXoXoXoXoXoXoXoXoXoXoXoXoXoXoXoXoX",
"oXoXoXoXoXoXoXoXoXoXoXoXoXoXoXoXoXoXoXoXoXp.a.a.a.a.a.a.a.a.a.a.a.a.a.a.a.a.a.a.a.a.p.oXoXoXoXoXoXoXoXoXoXoXoXoXoXoXoXoXoXoXoXoX",
"oXoXoXoXoXoXoXoXoXoXoXoXoXoXoXoXoXoXoXa.a.a.a.a.a.a.a.a.a.a.a.a.a.a.a.a.a.a.a.a.a.a.a.a.a.p.oXoXoXoXoXoXoXoXoXoXoXoXoXoXoXoXoXoX",
"oXoXoXoXoXoXoXoXoXoXoXoXoXoXoXoXoXa.a.a.a.a.a.a.a.a.a.a.a.a.a.a.a.a.a.a.a.a.a.a.a.a.a.a.a.a.a.p.oXoXoXoXoXoXoXoXoXoXoXoXoXoXoXoX",
"oXoXoXoXoXoXoXoXoXoXoXoXoXoXoXp.a.a.a.a.a.a.a.a.a.a.a.a.a.a.s.q.w.u.a.a.a.a.a.a.a.a.a.a.a.a.a.a.a.oXoXoXoXoXoXoXoXoXoXoXoXoXoXoX",
"oXoXoXoXoXoXoXoXoXoXoXoXoXoXa.a.a.a.a.a.a.a.a.a.t.:.E i C <       . 2 Z a T %.w.a.a.a.a.a.a.a.a.a.a.p.oXoXoXoXoXoXoXoXoXoXoXoXoX",
"oXoXoXoXoXoXoXoXoXoXoXoXp.a.a.a.a.a.a.a.a.i.@.f $                             + t ] w.a.a.a.a.a.a.a.a.a.oXoXoXoXoXoXoXoXoXoXoXoX",
"oXoXoXoXoXoXoXoXoXoXoXp.a.a.a.a.a.a.a.s.[ N                                         1 m 4.a.a.a.a.a.a.a.a.oXoXoXoXoXoXoXoXoXoXoX",
"oXoXoXoXoXoXoXoXoXoXa.a.a.a.a.a.a.a.#.B                                                 # ( e.a.a.a.a.a.a.a.oXoXoXoXoXoXoXoXoXoX",
"oXoXoXoXoXoXoXoXoXa.a.a.a.a.a.a.9.l                                                         8 } a.a.a.a.a.a.a.oXoXoXoXoXoXoXoXoX",
"oXoXoXoXoXoXoXoXa.a.a.a.a.a.a.>.M                                                             X T p.a.a.a.a.a.a.oXoXoXoXoXoXoXoX",
"oXoXoXoXoXoXoXp.a.a.a.a.a.a.=.$                                                                   f t.a.a.a.a.a.a.oXoXoXoXoXoXoX",
"oXoXoXoXoXoXp.a.a.a.a.a.a...O                                                                       t t.a.a.a.a.a.p.oXoXoXoXoXoX",
"oXoXoXoXoXoXa.a.a.a.a.a.+.X                                                                           d i.a.a.a.a.a.p.oXoXoXoXoX",
"oXoXoXoXoXp.a.a.a.a.a.| @                                                                               n a.a.a.a.a.a.oXoXoXoXoX",
"oXoXoXoXoXa.a.a.a.a.5.w                                                                                   o.a.a.a.a.a.p.oXoXoXoX",
"oXoXoXoXa.a.a.a.a.a.u       e m.'.{.{.{.{.{.{.{.{.{.{.{.{.{.{.{.{.{.{.{.{.{.{.{.{.{.{.{.{.{.{.'.N.H       4 8.a.a.a.a.a.oXoXoXoX",
"oXoXoXoXa.a.a.a.a...        j.XXXXXXXXXXXXXXXXXXXXXXXXXXXXXXXXXXXXXXXXXXXXXXXXXXXXXXXXXXXXXXXXXXXXk.        z a.a.a.a.a.p.oXoXoX",
"oXoXoXa.a.a.a.a.r.q         m.XXXXXXXXXXXXXXXXXXXXXXXXXXXXXXXXXXXXXXXXXXXXXXXXXXXXXXXXXXXXXXXXXXXXS.        X 1.a.a.a.a.a.oXoXoX",
"oXoXoXa.a.a.a.a.)           f.XXXXXXXXXXXXXXXXXXXXXXXXXXXXXXXXXXXXXXXXXXXXXXXXXXXXXXXXXXXXXXXXXXXXg.          k a.a.a.a.a.oXoXoX",
"oXoXp.a.a.a.a.i.7           - P l.x.x.x.x.x.x.x.x.x.x.x.x.[.XXXXXXXXXXn.z.c.v.x.x.x.x.x.x.x.b.l.U :           o 4.a.a.a.a.p.oXoX",
"oXoXa.a.a.a.a.%.                                          !.XXXXXXXXXX:                                         ~ a.a.a.a.a.oXoX",
"oXoXa.a.a.a.a.h                                           Q.XXXXXXXXXX:                                         A a.a.a.a.a.oXoX",
"oXoXa.a.a.a.p.0                                           Q.XXXXXXXXXX:                                         . 8.a.a.a.a.p.oX",
"oXp.a.a.a.a.3.                                            Q.XXXXXXXXXX;                                           &.a.a.a.a.p.oX",
"oXp.a.a.a.a.X.                                            W.XXXXXXXXXX;                                           Y a.a.a.a.a.oX",
"oXp.a.a.a.a.R                                             E.XXXXXXXXXX-                                           j a.a.a.a.a.oX",
"oXa.a.a.a.a.x                                             R.XXXXXXXXXX=                                           F a.a.a.a.a.oX",
"oXa.a.a.a.a.f                                             T.XXXXXXXXXX*                                           V a.a.a.a.a.oX",
"oXa.a.a.a.a.d                                             Y.XXXXXXXXXX&                                           6 a.a.a.a.a.oX",
"oXa.a.a.a.a.p                                             U.XXXXXXXXXX%                                           6 a.a.a.a.a.oX",
"oXa.a.a.a.a.l                                             I.XXXXXXXX.X%                                           V a.a.a.a.a.oX",
"oXa.a.a.a.a.v                                             P.XXXXXXXX.X                                            G a.a.a.a.a.oX",
"oXp.a.a.a.a.!                                             L.XXXXXXXX X                                            k a.a.a.a.a.oX",
"oXp.a.a.a.a.-.                                            K.XXXXXXXX|.                                            E a.a.a.a.a.oX",
"oXp.a.a.a.a.4.                                            J.XXXXXXXX}.                                            -.a.a.a.a.p.oX",
"oXoXa.a.a.a.a.M                                           H.XXXXXXXX[.                                          X 7.a.a.a.a.p.oX",
"oXoXa.a.a.a.a.c                                           G.XXXXXXXX].                                          G a.a.a.a.a.oXoX",
"oXoXa.a.a.a.a.{                                           F.XXXXXXXX`.                                          _ a.a.a.a.a.oXoX",
"oXoXp.a.a.a.a.i.8                                         D.XXXXXXXX_.                                        + 8.a.a.a.a.p.oXoX",
"oXoXoXa.a.a.a.a.!                                         A.XXXXXXXX).                                        h a.a.a.a.a.oXoXoX",
"oXoXoXa.a.a.a.a.w.5                                       Z.XXXXXXXX(.                                      O 3.a.a.a.a.a.oXoXoX",
"oXoXoXoXa.a.a.a.a.`                                       C.XXXXXXXX/.                                      c a.a.a.a.a.p.oXoXoX",
"oXoXoXoXa.a.a.a.a.i.S                                     V.XXXXXXXX^.                                    9 7.a.a.a.a.a.oXoXoXoX",
"oXoXoXoXoXa.a.a.a.a.3.3                                   B.XXXXXXXX~.                                    &.a.a.a.a.a.p.oXoXoXoX",
"oXoXoXoXoXa.a.a.a.a.a.O..                                 B.XXXXXXXX~.                                  b a.a.a.a.a.a.oXoXoXoXoX",
"oXoXoXoXoXoXa.a.a.a.a.a.W                                 h.XXXXXXXXM.                                y d.a.a.a.a.a.oXoXoXoXoXoX",
"oXoXoXoXoXoXp.a.a.a.a.a.a./                               & J L I K >                               G 0.a.a.a.a.a.p.oXoXoXoXoXoX",
"oXoXoXoXoXoXoXp.a.a.a.a.a.a.Q .                                                                   r w.a.a.a.a.a.a.oXoXoXoXoXoXoX",
"oXoXoXoXoXoXoXoXa.a.a.a.a.a.a.+.<                                                               h y.a.a.a.a.a.a.oXoXoXoXoXoXoXoX",
"oXoXoXoXoXoXoXoXoXa.a.a.a.a.a.a.3.A                                                         3 ' a.a.a.a.a.a.a.oXoXoXoXoXoXoXoXoX",
"oXoXoXoXoXoXoXoXoXoXa.a.a.a.a.a.a.i.) 1                                                   u 2.a.a.a.a.a.a.a.oXoXoXoXoXoXoXoXoXoX",
"oXoXoXoXoXoXoXoXoXoXoXa.a.a.a.a.a.a.a.8.m $                                           D ;.a.a.a.a.a.a.a.a.oXoXoXoXoXoXoXoXoXoXoX",
"oXoXoXoXoXoXoXoXoXoXoXoXp.a.a.a.a.a.a.a.a.7.^ Z                                 < g | a.a.a.a.a.a.a.a.a.oXoXoXoXoXoXoXoXoXoXoXoX",
"oXoXoXoXoXoXoXoXoXoXoXoXoXp.a.a.a.a.a.a.a.a.a.a.<.^ s 0                 , F m $.t.a.a.a.a.a.a.a.a.a.a.oXoXoXoXoXoXoXoXoXoXoXoXoX",
"oXoXoXoXoXoXoXoXoXoXoXoXoXoXoXa.a.a.a.a.a.a.a.a.a.a.a.a.9.,.:.*.*.;. .6.p.a.a.a.a.a.a.a.a.a.a.a.a.p.oXoXoXoXoXoXoXoXoXoXoXoXoXoX",
"oXoXoXoXoXoXoXoXoXoXoXoXoXoXoXoXp.a.a.a.a.a.a.a.a.a.a.a.a.a.a.a.a.a.a.a.a.a.a.a.a.a.a.a.a.a.a.p.oXoXoXoXoXoXoXoXoXoXoXoXoXoXoXoX",
"oXoXoXoXoXoXoXoXoXoXoXoXoXoXoXoXoXoXp.a.a.a.a.a.a.a.a.a.a.a.a.a.a.a.a.a.a.a.a.a.a.a.a.a.a.p.oXoXoXoXoXoXoXoXoXoXoXoXoXoXoXoXoXoX",
"oXoXoXoXoXoXoXoXoXoXoXoXoXoXoXoXoXoXoXoXoXp.a.a.a.a.a.a.a.a.a.a.a.a.a.a.a.a.a.a.a.a.a.p.oXoXoXoXoXoXoXoXoXoXoXoXoXoXoXoXoXoXoXoX",
"oXoXoXoXoXoXoXoXoXoXoXoXoXoXoXoXoXoXoXoXoXoXoXp.p.a.a.a.a.a.a.a.a.a.a.a.a.a.a.p.p.oXoXoXoXoXoXoXoXoXoXoXoXoXoXoXoXoXoXoXoXoXoXoX",
"oXoXoXoXoXoXoXoXoXoXoXoXoXoXoXoXoXoXoXoXoXoXoXoXoXoXoXoXp.p.p.p.p.p.p.p.oXoXoXoXoXoXoXoXoXoXoXoXoXoXoXoXoXoXoXoXoXoXoXoXoXoXoXoX",
"oXoXoXoXoXoXoXoXoXoXoXoXoXoXoXoXoXoXoXoXoXoXoXoXoXoXoXoXoXoXoXoXoXoXoXoXoXoXoXoXoXoXoXoXoXoXoXoXoXoXoXoXoXoXoXoXoXoXoXoXoXoXoXoX"
};
