/* XPM */
static char *result[] = {
/* columns rows colors chars-per-pixel */
"16 16 62 1 ",
"  c #272727",
". c #282727",
"X c #292727",
"o c #352725",
"O c #362724",
"+ c #3B2624",
"@ c #3C2624",
"# c #54261F",
"$ c #7A2519",
"% c #7E2518",
"& c #442622",
"* c #4C2621",
"= c #4F2620",
"- c #444444",
"; c #444445",
": c #4D4D4E",
"> c #505051",
", c #525253",
"< c #535354",
"1 c #882417",
"2 c #8F2415",
"3 c #902415",
"4 c #972414",
"5 c #982414",
"6 c #992414",
"7 c #B4230F",
"8 c #B6230F",
"9 c #B7230F",
"0 c #A12412",
"q c #A42412",
"w c #A62412",
"e c #AD2310",
"r c #AC2311",
"t c #AA2411",
"y c #AB2411",
"u c #B02310",
"i c #C6230C",
"p c #CA230B",
"a c #D2220A",
"s c #DD2208",
"d c #DE2208",
"f c #E42207",
"g c #E02208",
"h c #E12208",
"j c #818182",
"k c #A2A2A4",
"l c #A2A3A4",
"z c #A5A6A7",
"x c #A6A7A8",
"c c #A7A8AA",
"v c #A9AAAB",
"b c #AAABAC",
"n c #ABABAD",
"m c #ADADAF",
"M c #ADAEB0",
"N c #AFAFB1",
"B c #B0B1B2",
"V c #B1B2B3",
"C c #B2B2B4",
"Z c #CDCED0",
"A c #CFD0D2",
"S c None",
/* pixels */
"SSSSSSSffSSSSSSS",
"SSSSffa89affSSSS",
"SSSf8#.   =rfSSS",
"SSf3X       %fSS",
"Sfw-jjjjjjjj;4fS",
"Sg@,kllZAklk<osS",
"f7     nC     ef",
"f5     bV     2f",
"f6     vB     3f",
"f8     cN     ef",
"Sh+    xM    OdS",
"Sf0    zm    5fS",
"SSf1.  :>   $fSS",
"SSSfu*    &qfSSS",
"SSSSffpytiffSSSS",
"SSSSSSffffSSSSSS"
};
