/* XPM */
static char *result[] = {
/* columns rows colors chars-per-pixel */
"32 32 115 2 ",
"   c #272727",
".  c #282727",
"X  c #292727",
"o  c #2B2726",
"O  c #2D2726",
"+  c #312725",
"@  c #342725",
"#  c #352725",
"$  c #3B2624",
"%  c gray24",
"&  c #3E3E3E",
"*  c #56261F",
"=  c #58261F",
"-  c #5F261E",
";  c #62251D",
":  c #60261D",
">  c #6C251B",
",  c #6E251B",
"<  c #6A251C",
"1  c #6B251C",
"2  c #70251B",
"3  c #72251A",
"4  c #73251A",
"5  c #772519",
"6  c #74251A",
"7  c #7A2519",
"8  c #7D2518",
"9  c #402623",
"0  c #422622",
"q  c #442622",
"w  c #452622",
"e  c #472622",
"r  c #492621",
"t  c #502620",
"y  c #512620",
"u  c #522620",
"i  c gray26",
"p  c #4B4B4C",
"a  c #656566",
"s  c #656667",
"d  c #666667",
"f  c #6C6D6D",
"g  c #6D6D6E",
"h  c #6D6E6F",
"j  c #6F6F70",
"k  c #707171",
"l  c #727273",
"z  c #737475",
"x  c #757576",
"c  c #767677",
"v  c #777778",
"b  c #777879",
"n  c #787879",
"m  c #7B7C7C",
"M  c #7B7C7D",
"N  c #7C7D7E",
"B  c #7D7E7F",
"V  c #832517",
"C  c #852517",
"Z  c #8B2416",
"A  c #8F2415",
"S  c #8C2416",
"D  c #8E2416",
"F  c #822518",
"G  c #912415",
"H  c #922415",
"J  c #952414",
"K  c #9B2413",
"L  c #9C2413",
"P  c #9E2413",
"I  c #9F2413",
"U  c #982414",
"Y  c #992414",
"T  c #B7230F",
"R  c #BC230E",
"E  c #A02413",
"W  c #AD2310",
"Q  c #AC2311",
"!  c #A82411",
"~  c #AA2411",
"^  c #AC2411",
"/  c #C3230D",
"(  c #C5230C",
")  c #C7230C",
"_  c #CC230B",
"`  c #C9230C",
"'  c #D0230A",
"]  c #D3220A",
"[  c #D62209",
"{  c #D72209",
"}  c #D4220A",
"|  c #DF2208",
" . c #E22207",
".. c #E32207",
"X. c #E42207",
"o. c #E02208",
"O. c #7F7F80",
"+. c #808182",
"@. c #828283",
"#. c #838384",
"$. c #848485",
"%. c #858586",
"&. c #858687",
"*. c #99999B",
"=. c #9B9B9D",
"-. c #9C9C9E",
";. c #A4A4A6",
":. c #A4A5A6",
">. c #A7A8A9",
",. c #BCBDBF",
"<. c #BFC0C2",
"1. c #DADBDD",
"2. c #DBDCDE",
"3. c #DEDFE1",
"4. c None",
/* pixels */
"4.4.4.4.4.4.4.4.4.4.4.4.4.4.4.4.4.4.4.4.4.4.4.4.4.4.4.4.4.4.4.4.",
"4.4.4.4.4.4.4.4.4.4.4.X.X.X.X.X.X.X.X.X.X.4.4.4.4.4.4.4.4.4.4.4.",
"4.4.4.4.4.4.4.4.4.X.X.X.X.X.X.X.X.X.X.X.X.X.X.4.4.4.4.4.4.4.4.4.",
"4.4.4.4.4.4.4.X.X.X.X.X.[ ^ A F V G Q } X.X.X.X.X.4.4.4.4.4.4.4.",
"4.4.4.4.4.4.X.X.X...! = X             . y K | X.X.X.4.4.4.4.4.4.",
"4.4.4.4.4.X.X.X./ t                         9 W X.X.X.4.4.4.4.4.",
"4.4.4.4.X.X.X.I O                               8 ..X.X.4.4.4.4.",
"4.4.4.X.X.X.J .                                   2 ..X.X.4.4.4.",
"4.4.X.X.X.~ .                                       Z X.X.X.4.4.",
"4.4.X.X.] #   *.1.2.2.2.2.2.2.2.2.2.2.2.2.2.2.1.-.  o / X.X.4.4.",
"4.X.X.X.6     ,.3.3.3.3.3.3.3.3.3.3.3.3.3.3.3.3.<.    - X.X.X.4.",
"4.X.X.[ O     % a d d d d d =.3.3.;.s d d d d a &     . ` X.X.4.",
"4.X.X.L                     n 3.3.&.                    S X.X.4.",
"4.X.X.,                     b 3.3.&.                    - X.X.4.",
"4.X.X.u                     v 3.3.%.                    0 X.X.X.",
"X.X.X.w                     c 3.3.$.                    @ X.X.X.",
"X.X.X.e                     x 3.3.#.                    @ X.X.X.",
"4.X.X.*                     z 3.3.@.                    0 X.X.X.",
"4.X.X.4                     l 3.3.+.                    : X.X.4.",
"4.X.X.I                     k 3.3.O.                    D X.X.4.",
"4.X.X.{ O                   j 3.3.B                   . _ X.X.4.",
"4.X.X.X.3                   h 3.3.N                   ; X.X.X.4.",
"4.4.X.X.' +                 g 3.3.M                 o ( X.X.4.4.",
"4.4.X.X.X.E                 f 3.3.m                 S X.X.X.4.4.",
"4.4.4.X.X.X.C               i :.>.p               > ..X.X.4.4.4.",
"4.4.4.4.X.X.X.A X                               4  .X.X.4.4.4.4.",
"4.4.4.4.4.X.X.X.T q                         # P X.X.X.4.4.4.4.4.",
"4.4.4.4.4.4.X.X.X.o.Y r                 $ C { X.X.X.4.4.4.4.4.4.",
"4.4.4.4.4.4.4.X.X.X.X.X.) U 7 1 < 5 H R  .X.X.X.X.4.4.4.4.4.4.4.",
"4.4.4.4.4.4.4.4.4.X.X.X.X.X.X.X.X.X.X.X.X.X.X...4.4.4.4.4.4.4.4.",
"4.4.4.4.4.4.4.4.4.4.4.X.X.X.X.X.X.X.X.X.X.4.4.4.4.4.4.4.4.4.4.4.",
"4.4.4.4.4.4.4.4.4.4.4.4.4.4.4.4.4.4.4.4.4.4.4.4.4.4.4.4.4.4.4.4."
};
